<svg xmlns="http://www.w3.org/2000/svg" viewBox="0 0 128 128">
  <defs>
    <linearGradient id="g" x1="0" y1="0" x2="1" y2="1">
      <stop offset="0" stop-color="#2563eb" />
      <stop offset="1" stop-color="#06b6d4" />
    </linearGradient>
  </defs>
  <rect width="128" height="128" rx="28" fill="url(#g)" />
  <path
    d="M40 42c0-6 4-10 10-10h28c6 0 10 4 10 10v44c0 6-4 10-10 10H50c-6 0-10-4-10-10V42zm14 7h20c2 0 4-2 4-4s-2-4-4-4H54c-2 0-4 2-4 4s2 4 4 4zm0 18h36c2 0 4-2 4-4s-2-4-4-4H54c-2 0-4 2-4 4s2 4 4 4zm0 18h30c2 0 4-2 4-4s-2-4-4-4H54c-2 0-4 2-4 4s2 4 4 4z"
    fill="#ffffff"
    opacity="0.95"
  />
</svg>

